<?xml version="1.0" standalone="no"?>
<!DOCTYPE svg PUBLIC "-//W3C//DTD SVG 20010904//EN"
 "http://www.w3.org/TR/2001/REC-SVG-20010904/DTD/svg10.dtd">
<svg version="1.0" xmlns="http://www.w3.org/2000/svg"
 width="64.000000pt" height="64.000000pt" viewBox="0 0 64.000000 64.000000"
 preserveAspectRatio="xMidYMid meet">

<g transform="translate(0.000000,64.000000) scale(0.100000,-0.100000)"
fill="#000000" stroke="none">
<path d="M0 320 l0 -320 320 0 320 0 0 320 0 320 -320 0 -320 0 0 -320z m625
300 c-4 -6 -115 -10 -301 -10 l-294 0 -1 -280 c-2 -310 -1 -295 -12 -306 -4
-4 -7 131 -7 299 l0 307 311 0 c204 0 308 -3 304 -10z m5 -41 c0 -11 -4 -17
-10 -14 -5 3 -10 13 -10 21 0 8 5 14 10 14 6 0 10 -9 10 -21z m-407 -13 c29
-8 105 -26 169 -41 66 -15 118 -32 118 -39 0 -6 -10 -22 -21 -36 l-21 -25 17
30 18 30 -24 -20 c-32 -27 -45 -42 -80 -94 -45 -69 -42 -74 46 -69 80 4 83 1
66 -45 -8 -21 -15 -24 -48 -22 -21 1 -64 8 -96 15 -51 10 -60 16 -69 41 -11
33 -16 35 -46 13 -20 -14 -26 -13 -67 5 -25 11 -52 18 -60 15 -7 -3 -23 -1
-34 5 -21 12 -22 8 9 87 8 21 11 20 56 -22 26 -24 51 -44 55 -44 22 0 1 97
-46 213 -9 21 -7 21 58 3z m403 -73 c-10 -10 -19 5 -10 18 6 11 8 11 12 0 2
-7 1 -15 -2 -18z m4 -28 c0 -8 -2 -15 -4 -15 -2 0 -6 7 -10 15 -3 8 -1 15 4
15 6 0 10 -7 10 -15z m-444 -37 c1 -14 4 -34 8 -44 5 -12 -6 -6 -28 15 -41 39
-43 48 -18 54 28 7 37 2 38 -25z m440 -35 c-11 -11 -17 4 -9 23 7 18 8 18 11
1 2 -10 1 -21 -2 -24z m-542 -106 c-3 -8 2 -14 13 -14 10 1 36 0 58 -2 48 -2
31 -15 -32 -25 -23 -3 -48 -9 -57 -12 -19 -7 -22 17 -6 47 12 21 32 26 24 6z
m204 -6 c3 -10 0 -12 -13 -7 -11 4 -22 1 -27 -6 -6 -10 -8 -9 -8 3 0 31 38 39
48 10z m-38 -61 c0 -10 -5 -22 -11 -26 -8 -4 -8 -9 0 -17 18 -18 14 -47 -6
-40 -10 4 -21 11 -25 17 -16 24 -17 -5 -1 -38 15 -33 16 -38 1 -52 -21 -21
-27 -16 -63 50 l-30 56 50 44 c39 34 54 42 68 35 9 -6 17 -18 17 -29z m128
-53 c22 -23 22 -24 4 -40 -17 -16 -19 -14 -29 23 -12 46 -6 50 25 17z m92 -38
c0 -16 -2 -29 -4 -29 -3 0 -14 13 -25 29 l-21 29 25 0 c21 0 25 -5 25 -29z
m-200 -33 c0 -2 -7 -6 -15 -10 -8 -3 -15 -1 -15 4 0 6 7 10 15 10 8 0 15 -2
15 -4z"/>
<path d="M200 532 c0 -5 6 -16 13 -25 11 -16 12 -15 13 8 1 15 -3 25 -12 25
-8 0 -14 -4 -14 -8z"/>
<path d="M327 468 c-12 -28 -11 -34 6 -51 23 -23 33 -16 17 13 -7 12 -10 33
-7 46 6 33 -1 30 -16 -8z"/>
<path d="M284 395 c3 -9 6 -29 7 -43 0 -26 1 -26 9 -5 5 12 17 26 27 31 22 13
12 25 -24 30 -20 2 -24 0 -19 -13z"/>
<path d="M140 160 c0 -6 7 -10 15 -10 8 0 15 2 15 4 0 2 -7 6 -15 10 -8 3 -15
1 -15 -4z"/>
</g>
</svg>
