<?xml version="1.0" standalone="no"?>
<!DOCTYPE svg PUBLIC "-//W3C//DTD SVG 20010904//EN"
 "http://www.w3.org/TR/2001/REC-SVG-20010904/DTD/svg10.dtd">
<svg version="1.0" xmlns="http://www.w3.org/2000/svg"
 width="64.000000pt" height="64.000000pt" viewBox="0 0 64.000000 64.000000"
 preserveAspectRatio="xMidYMid meet">

<g transform="translate(0.000000,64.000000) scale(0.100000,-0.100000)"
fill="#000000" stroke="none">
<path d="M0 320 l0 -320 320 0 320 0 0 320 0 320 -320 0 -320 0 0 -320z m625
300 c-4 -6 -115 -10 -301 -10 l-294 0 -1 -280 c-2 -310 -1 -295 -12 -306 -4
-4 -7 131 -7 299 l0 307 311 0 c204 0 308 -3 304 -10z m5 -40 c0 -11 -4 -20
-10 -20 -5 0 -10 9 -10 20 0 11 5 20 10 20 6 0 10 -9 10 -20z m-255 -10 l20
-9 -20 1 c-11 0 -31 4 -45 8 l-25 8 25 0 c14 0 34 -3 45 -8z m-33 -16 c35 -8
27 -24 -8 -18 -22 4 -24 3 -12 -9 8 -9 27 -13 48 -10 27 3 32 2 20 -6 -13 -10
-13 -13 2 -24 21 -17 10 -35 -21 -33 -19 1 -26 -5 -31 -24 -6 -25 -6 -25 -20
8 -9 18 -22 32 -32 32 -12 0 -18 8 -19 23 -1 12 -5 2 -9 -23 -6 -35 -4 -49 9
-65 l16 -20 -25 20 c-90 74 -108 102 -78 122 25 16 103 41 118 38 8 -2 27 -7
42 -11z m-189 -55 c-6 -6 -15 -4 -24 7 -12 16 -12 17 4 11 10 -4 17 -2 18 6 0
8 2 8 6 -1 3 -8 1 -18 -4 -23z m477 -5 c0 -19 -4 -33 -9 -29 -8 4 -9 48 -2 63
5 12 11 -5 11 -34z m-530 -11 c-11 -8 -26 -23 -34 -35 -15 -21 -15 -20 -12 16
3 43 21 59 47 43 17 -10 17 -12 -1 -24z m88 -59 c52 -46 62 -73 18 -50 -13 7
-36 27 -51 45 -17 20 -33 30 -43 26 -12 -4 -13 -3 -2 10 7 8 15 15 19 15 3 0
30 -21 59 -46z m370 10 c3 -16 1 -17 -8 -4 -10 13 -11 13 -7 0 2 -9 14 -14 28
-13 23 3 23 2 5 -12 -32 -25 -46 -18 -46 21 0 38 22 45 28 8z m-161 -10 c-7
-7 -37 7 -37 17 0 6 9 5 21 -1 11 -7 19 -14 16 -16z m-277 -41 c0 -16 3 -39 7
-53 7 -24 8 -23 19 15 14 45 17 22 5 -40 l-7 -40 -17 32 c-9 18 -17 40 -17 50
0 15 -2 16 -11 3 -9 -12 -10 -12 -5 3 3 10 6 27 6 38 0 10 5 19 10 19 6 0 10
-12 10 -27z m510 8 c0 -29 -15 -33 -16 -5 -1 13 2 24 7 24 5 0 9 -9 9 -19z
m-355 -31 c3 -5 16 -15 28 -21 l22 -12 -20 23 -20 22 25 -3 c14 -2 26 -10 26
-16 3 -26 5 -28 14 -13 7 12 12 12 22 2 9 -9 9 -12 -3 -13 -73 -3 -93 -15
-110 -66 l-11 -35 -14 27 c-8 15 -11 32 -7 39 3 6 2 7 -3 3 -5 -5 -14 -23 -21
-40 l-11 -32 -1 28 c-2 61 62 142 84 107z m142 -126 c-3 -3 -12 -4 -19 -1 -8
3 -5 6 6 6 11 1 17 -2 13 -5z m-266 -71 c13 -16 12 -17 -3 -4 -10 7 -18 15
-18 17 0 8 8 3 21 -13z m366 -29 c-3 -3 -12 -4 -19 -1 -8 3 -5 6 6 6 11 1 17
-2 13 -5z"/>
<path d="M285 500 c-3 -5 1 -10 9 -10 8 0 18 5 21 10 3 6 -1 10 -9 10 -8 0
-18 -4 -21 -10z"/>
<path d="M335 489 c-4 -6 -5 -12 -2 -15 7 -7 37 7 37 17 0 13 -27 11 -35 -2z"/>
</g>
</svg>
