<?xml version="1.0" standalone="no"?>
<!DOCTYPE svg PUBLIC "-//W3C//DTD SVG 20010904//EN"
 "http://www.w3.org/TR/2001/REC-SVG-20010904/DTD/svg10.dtd">
<svg version="1.0" xmlns="http://www.w3.org/2000/svg"
 width="64.000000pt" height="64.000000pt" viewBox="0 0 64.000000 64.000000"
 preserveAspectRatio="xMidYMid meet">

<g transform="translate(0.000000,64.000000) scale(0.100000,-0.100000)"
fill="#000000" stroke="none">
<path d="M0 320 l0 -320 320 0 320 0 0 320 0 320 -320 0 -320 0 0 -320z m625
300 c-4 -6 -115 -10 -301 -10 l-294 0 -1 -280 c-2 -310 -1 -295 -12 -306 -4
-4 -7 131 -7 299 l0 307 311 0 c204 0 308 -3 304 -10z m5 -36 c0 -8 -4 -12
-10 -9 -5 3 -10 10 -10 16 0 5 5 9 10 9 6 0 10 -7 10 -16z m-100 -14 c-13 -24
-22 -27 -13 -4 5 14 3 15 -17 4 -21 -11 -22 -14 -7 -25 9 -6 14 -15 10 -18 -9
-9 -33 12 -33 30 0 13 32 31 58 32 10 1 10 -4 2 -19z m-99 -25 c-41 -18 -51
-19 -51 -2 0 7 16 13 43 14 l42 2 -34 -14z m-121 0 c0 -3 -7 -17 -16 -30 -27
-41 -68 -27 -42 15 11 17 58 29 58 15z m39 -31 c-13 -14 -32 -30 -42 -36 -16
-8 -17 -7 -7 11 6 12 14 20 18 20 19 -3 25 2 12 11 -12 7 -10 11 10 18 35 13
37 6 9 -24z m121 11 c16 -20 1 -38 -20 -25 -12 8 -12 10 -1 10 11 0 11 3 1 15
-7 8 -8 15 -2 15 5 0 15 -7 22 -15z m157 -57 c-3 -22 -4 -21 -11 4 -5 16 -5
36 0 45 7 16 8 15 11 -4 3 -13 3 -33 0 -45z m-462 -62 c-26 -36 -51 -69 -57
-72 -13 -8 31 77 51 98 9 9 22 24 30 33 7 9 15 14 18 11 3 -2 -16 -34 -42 -70z
m281 49 c-8 -7 -13 -15 -9 -18 3 -4 1 -7 -5 -7 -14 0 -14 3 -7 23 3 7 13 14
22 14 14 0 14 -1 -1 -12z m-192 -50 c-42 -62 -57 -75 -23 -17 13 20 28 45 33
55 6 9 14 17 19 17 4 0 -9 -25 -29 -55z m180 -25 c-21 -38 -39 -68 -41 -66 -5
4 67 136 74 136 2 0 -13 -31 -33 -70z m149 45 c-3 -9 -8 -14 -10 -11 -3 3 -2
9 2 15 9 16 15 13 8 -4z m44 -39 c-1 -19 -5 -32 -9 -30 -9 6 -7 64 3 64 4 0 7
-15 6 -34z m-111 -63 c-14 -26 -25 -44 -26 -39 0 14 42 98 47 92 2 -2 -7 -26
-21 -53z m-318 -3 c-7 -10 -14 -17 -17 -15 -4 4 18 35 25 35 2 0 -1 -9 -8 -20z
m-74 -13 c18 -13 18 -15 2 -39 -12 -18 -23 -24 -37 -21 -29 8 -33 21 -15 48
19 29 25 30 50 12z m144 -74 c-10 -2 -26 -2 -35 0 -10 3 -2 5 17 5 19 0 27 -2
18 -5z m54 -5 c-9 -9 -15 -9 -24 0 -9 9 -7 12 12 12 19 0 21 -3 12 -12z m-149
-5 c-7 -2 -21 -2 -30 0 -10 3 -4 5 12 5 17 0 24 -2 18 -5z"/>
<path d="M255 510 c4 -6 11 -8 16 -5 14 9 11 15 -7 15 -8 0 -12 -5 -9 -10z"/>
<path d="M103 304 c4 -7 -3 -15 -16 -19 -20 -6 -20 -8 -3 -12 26 -7 44 13 27
30 -8 7 -11 7 -8 1z"/>
</g>
</svg>
