<?xml version="1.0" standalone="no"?>
<!DOCTYPE svg PUBLIC "-//W3C//DTD SVG 20010904//EN"
 "http://www.w3.org/TR/2001/REC-SVG-20010904/DTD/svg10.dtd">
<svg version="1.0" xmlns="http://www.w3.org/2000/svg"
 width="64.000000pt" height="64.000000pt" viewBox="0 0 64.000000 64.000000"
 preserveAspectRatio="xMidYMid meet">

<g transform="translate(0.000000,64.000000) scale(0.100000,-0.100000)"
fill="#000000" stroke="none">
<path d="M0 320 l0 -320 320 0 320 0 0 320 0 320 -320 0 -320 0 0 -320z m625
300 c-4 -6 -115 -10 -301 -10 l-294 0 -1 -280 c-2 -310 -1 -295 -12 -306 -4
-4 -7 131 -7 299 l0 307 311 0 c204 0 308 -3 304 -10z m5 -34 c0 -8 -4 -18
-10 -21 -5 -3 -10 3 -10 14 0 12 5 21 10 21 6 0 10 -6 10 -14z m-255 -17 c-16
-4 -46 -11 -66 -14 -45 -7 -82 -35 -115 -86 -13 -22 -31 -39 -38 -39 -25 0 14
78 58 116 38 32 43 34 115 33 60 -1 70 -3 46 -10z m255 -126 c0 -42 -3 -74 -6
-70 -5 5 -7 52 -5 125 1 12 3 22 6 22 3 0 5 -34 5 -77z m-313 -58 c0 -8 -2
-13 -5 -10 -8 8 -43 -16 -37 -25 4 -6 -1 -7 -11 -3 -14 5 -16 3 -11 -11 4 -9
3 -15 -2 -12 -9 6 -39 -23 -40 -39 -2 -23 -13 -45 -22 -45 -12 0 -2 36 19 68
12 18 98 92 107 92 1 0 2 -7 2 -15z m-37 -80 c-7 -9 -15 -13 -18 -10 -3 2 1
11 8 20 7 9 15 13 18 10 3 -2 -1 -11 -8 -20z m-39 -49 c5 3 9 1 9 -5 0 -5 -9
-9 -19 -8 -12 1 -17 6 -13 16 4 10 7 11 10 3 2 -7 8 -10 13 -6z m-36 -96 c4
-6 11 -8 16 -5 5 3 6 -1 2 -11 -5 -15 -7 -15 -15 0 -15 26 -38 19 -45 -14 -3
-17 -8 -29 -10 -26 -3 2 -2 18 2 35 7 31 36 43 50 21z"/>
</g>
</svg>
