<?xml version="1.0" standalone="no"?>
<!DOCTYPE svg PUBLIC "-//W3C//DTD SVG 20010904//EN"
 "http://www.w3.org/TR/2001/REC-SVG-20010904/DTD/svg10.dtd">
<svg version="1.0" xmlns="http://www.w3.org/2000/svg"
 width="64.000000pt" height="64.000000pt" viewBox="0 0 64.000000 64.000000"
 preserveAspectRatio="xMidYMid meet">

<g transform="translate(0.000000,64.000000) scale(0.100000,-0.100000)"
fill="#000000" stroke="none">
<path d="M0 320 l0 -320 320 0 320 0 0 320 0 320 -320 0 -320 0 0 -320z m625
300 c-4 -6 -115 -10 -301 -10 l-294 0 0 -289 c0 -183 -4 -292 -10 -296 -7 -4
-10 98 -10 299 l0 306 311 0 c204 0 308 -3 304 -10z m5 -27 c0 -5 -5 -15 -10
-23 -8 -12 -10 -11 -10 8 0 12 5 22 10 22 6 0 10 -3 10 -7z m0 -140 c0 -47 -3
-84 -6 -80 -5 5 -7 52 -5 140 1 15 3 27 6 27 3 0 5 -39 5 -87z m-240 -15 l0
-58 60 0 60 0 0 -66 0 -67 -60 6 -60 7 0 -66 0 -65 -67 3 -68 3 -3 58 -3 57
-59 0 -60 0 0 64 0 65 53 3 52 3 3 45 c4 70 4 70 82 68 l70 -1 0 -59z"/>
</g>
</svg>
