<?xml version="1.0" standalone="no"?>
<!DOCTYPE svg PUBLIC "-//W3C//DTD SVG 20010904//EN"
 "http://www.w3.org/TR/2001/REC-SVG-20010904/DTD/svg10.dtd">
<svg version="1.0" xmlns="http://www.w3.org/2000/svg"
 width="2100.000000pt" height="2100.000000pt" viewBox="0 0 2100.000000 2100.000000"
 preserveAspectRatio="xMidYMid meet">

<g transform="translate(0.000000,2100.000000) scale(0.100000,-0.100000)"
fill="#000000" stroke="none">
<path d="M10095 20973 c-573 -27 -1066 -85 -1600 -189 -2483 -484 -4677 -1827
-6242 -3819 -963 -1227 -1649 -2680 -1987 -4205 -179 -809 -257 -1588 -243
-2425 12 -656 69 -1201 193 -1840 484 -2483 1827 -4677 3819 -6242 1119 -878
2429 -1528 3813 -1892 1276 -336 2617 -425 3937 -260 1163 144 2300 483 3348
999 2367 1163 4212 3192 5160 5670 351 919 564 1854 651 2855 51 579 45 1298
-14 1890 -125 1260 -475 2491 -1030 3618 -1106 2249 -2989 4027 -5315 5017
-1138 485 -2354 761 -3610 820 -187 9 -721 11 -880 3z m1145 -497 c210 -17
400 -37 575 -60 2730 -363 5207 -1850 6815 -4091 997 -1390 1616 -3011 1809
-4740 45 -398 55 -591 55 -1075 1 -473 -6 -619 -45 -1010 -104 -1048 -388
-2114 -824 -3085 -760 -1696 -2000 -3170 -3540 -4206 -1483 -998 -3214 -1582
-5010 -1688 -1001 -59 -1996 32 -2977 275 -1578 390 -3079 1185 -4283 2270
-1463 1317 -2490 3002 -2986 4899 -164 628 -255 1186 -311 1910 -17 226 -17
1030 0 1270 54 742 168 1402 357 2074 680 2403 2265 4502 4380 5798 1433 878
3021 1372 4736 1473 225 13 1023 4 1249 -14z"/>
<path d="M8525 19767 c-121 -32 -218 -99 -282 -194 -21 -33 -63 -124 -93 -204
-29 -79 -61 -162 -71 -184 -10 -22 -116 -301 -234 -620 -119 -318 -220 -585
-226 -591 -5 -6 -31 -19 -57 -29 -155 -58 -460 -194 -655 -292 -1088 -545
-2060 -1357 -2797 -2338 -842 -1120 -1376 -2434 -1550 -3810 -45 -358 -53
-497 -56 -965 l-3 -454 -223 -221 c-123 -121 -390 -385 -594 -586 -349 -343
-373 -370 -407 -440 -98 -200 -57 -417 109 -568 30 -27 78 -61 107 -74 28 -14
381 -147 782 -297 402 -150 737 -276 746 -281 9 -4 38 -61 64 -126 447 -1095
1117 -2065 1970 -2853 1525 -1409 3503 -2170 5557 -2138 l297 5 443 -452 c244
-248 508 -519 588 -601 156 -161 210 -199 325 -229 164 -42 344 12 463 140 67
71 87 112 167 330 98 271 487 1319 495 1334 4 7 81 43 171 81 726 298 1396
700 2019 1209 286 234 665 600 904 871 1081 1233 1754 2716 1956 4315 43 342
53 509 56 955 l3 435 273 271 c150 148 410 405 578 569 168 165 324 324 347
353 104 131 122 333 45 492 -33 67 -120 162 -181 198 -25 15 -394 158 -821
317 l-775 291 -38 94 c-402 992 -968 1859 -1707 2614 -1143 1168 -2608 1956
-4210 2266 -530 103 -949 141 -1546 141 l-361 0 -574 581 c-315 319 -597 596
-625 615 -28 18 -75 43 -105 55 -67 25 -203 33 -274 15z m2214 -3111 c36 -9
100 -34 144 -56 235 -118 393 -333 436 -595 17 -103 541 -6045 541 -6132 0
-315 -204 -613 -502 -732 -64 -26 -453 -114 -953 -217 -205 -41 -376 -26 -540
51 -172 80 -332 245 -400 412 -36 91 -1956 5740 -1977 5818 -25 96 -33 215
-19 305 48 308 259 560 546 654 83 27 2354 506 2435 514 91 9 203 0 289 -22z
m896 -8817 c175 -22 396 -94 555 -181 227 -124 457 -332 593 -538 391 -591
376 -1341 -40 -1907 -387 -528 -1055 -782 -1688 -643 -524 116 -964 478 -1176
969 -198 460 -176 991 58 1431 124 232 332 464 543 603 349 230 734 319 1155
266z"/>
</g>
</svg>
