<?xml version="1.0" standalone="no"?>
<!DOCTYPE svg PUBLIC "-//W3C//DTD SVG 20010904//EN"
 "http://www.w3.org/TR/2001/REC-SVG-20010904/DTD/svg10.dtd">
<svg version="1.0" xmlns="http://www.w3.org/2000/svg"
 width="64.000000pt" height="64.000000pt" viewBox="0 0 64.000000 64.000000"
 preserveAspectRatio="xMidYMid meet">

<g transform="translate(0.000000,64.000000) scale(0.100000,-0.100000)"
fill="#000000" stroke="none">
<path d="M0 320 l0 -320 320 0 320 0 0 320 0 320 -320 0 -320 0 0 -320z m413
228 c-1 -23 2 -28 22 -28 13 0 27 -5 31 -12 5 -8 0 -9 -17 -4 -13 4 -55 11
-94 16 -88 12 -124 20 -131 31 -3 5 4 9 15 9 11 0 23 5 26 10 4 7 36 10 78 8
72 -3 72 -3 70 -30z m-173 -148 c0 -5 -4 -10 -10 -10 -5 0 -10 5 -10 10 0 6 5
10 10 10 6 0 10 -4 10 -10z m-108 -55 c6 -14 17 -25 25 -25 7 0 13 -10 13 -22
0 -18 6 -23 28 -25 15 -1 32 3 38 8 6 5 19 6 28 3 12 -5 19 -1 22 13 3 11 19
28 36 38 l31 18 -6 -23 c-7 -27 15 -53 37 -44 10 4 18 0 22 -10 3 -9 12 -16
20 -16 17 0 17 -5 4 -31 -7 -13 -7 -19 0 -19 5 0 10 4 10 8 0 5 7 17 15 28 15
18 16 17 9 -14 -6 -32 -5 -34 17 -27 41 12 49 31 34 78 -13 39 -13 40 2 20 8
-13 23 -23 33 -23 20 0 34 -37 16 -43 -8 -3 -7 -8 2 -19 17 -22 1 -31 -40 -23
-26 5 -41 0 -67 -19 -40 -30 -53 -32 -84 -12 -12 8 -43 16 -69 19 -53 4 -70
-7 -82 -57 -4 -15 -9 -27 -11 -25 -2 2 -6 40 -8 84 -5 71 -7 80 -24 77 -10 -2
-19 -8 -21 -13 -2 -5 -10 -9 -18 -9 -8 0 -23 -5 -33 -12 -15 -9 -22 -8 -37 6
-15 16 -16 23 -5 54 29 86 44 99 63 57z"/>
</g>
</svg>
